<svg width="24" height="25" viewBox="0 0 24 25" fill="none" xmlns="http://www.w3.org/2000/svg">
<g id="react-icons/io5/IoChatbox">
<path id="Vector" d="M6.75 22.016C6.55109 22.016 6.36032 21.937 6.21967 21.7963C6.07902 21.6557 6 21.4649 6 21.266V18.266H4.875C3.9802 18.265 3.12233 17.9091 2.48961 17.2764C1.85689 16.6437 1.50099 15.7858 1.5 14.891V5.89099C1.50099 4.99619 1.85689 4.13832 2.48961 3.5056C3.12233 2.87288 3.9802 2.51698 4.875 2.51599H19.125C20.0198 2.51698 20.8777 2.87288 21.5104 3.5056C22.1431 4.13832 22.499 4.99619 22.5 5.89099V14.891C22.499 15.7858 22.1431 16.6437 21.5104 17.2764C20.8777 17.9091 20.0198 18.265 19.125 18.266H11.5191L7.23047 21.8421C7.09551 21.9543 6.92554 22.0159 6.75 22.016Z" fill="#323D3D"/>
</g>
</svg>
