<svg width="25" height="24" viewBox="0 0 25 24" fill="none" xmlns="http://www.w3.org/2000/svg">
<g id="react-icons/io5/IoSearchSharp">
<path id="Vector" d="M22.25 20.0625L16.4338 14.2453C17.3711 12.9572 17.8753 11.4049 17.8738 9.81188C17.8738 5.64234 14.4814 2.25 10.3119 2.25C6.14234 2.25 2.75 5.64234 2.75 9.81188C2.75 13.9814 6.14234 17.3738 10.3119 17.3738C11.9049 17.3753 13.4572 16.8711 14.7453 15.9338L20.5625 21.75L22.25 20.0625ZM10.3119 14.9855C9.2885 14.9856 8.28809 14.6822 7.43714 14.1137C6.5862 13.5452 5.92296 12.7371 5.53129 11.7917C5.13961 10.8462 5.03711 9.80583 5.23674 8.80211C5.43637 7.7984 5.92916 6.87643 6.65279 6.15279C7.37643 5.42916 8.2984 4.93637 9.30211 4.73674C10.3058 4.53711 11.3462 4.63961 12.2917 5.03129C13.2371 5.42296 14.0452 6.0862 14.6137 6.93714C15.1822 7.78809 15.4856 8.7885 15.4855 9.81188C15.4839 11.1835 14.9383 12.4985 13.9684 13.4684C12.9985 14.4383 11.6835 14.9839 10.3119 14.9855Z" fill="#F2F1E6"/>
</g>
</svg>
