<svg width="63" height="40" viewBox="0 0 63 40" fill="none" xmlns="http://www.w3.org/2000/svg">
<path id="Google" d="M39.0429 16.9202L38.8466 16.0613H19.6319V23.9264H30.7607C29.6074 29.4479 24.8221 31.7301 20.4417 31.7301C17.2515 31.7301 14.2822 30.773 12.0614 28.6258C9.77914 26.4049 8.51534 23.3374 8.51534 19.9877C8.51534 16.6626 9.71779 13.6319 11.9018 11.4479C14.0736 9.27607 17.0552 8.33129 20.3313 8.33129C24.0736 8.33129 26.454 10.0245 27.4601 10.9202L33.3497 5.06748C31.6933 3.6319 27.1779 0 20.135 0C14.6994 0 9.49693 2.06135 5.69325 5.86503C1.95092 9.60736 0 14.9939 0 20C0 25.0061 1.84049 30.135 5.47239 33.9018C9.36196 37.9141 14.8712 40 20.5521 40C25.7178 40 30.6012 37.9755 34.0859 34.319C37.5215 30.7117 39.2883 25.7178 39.2883 20.4908C39.2761 18.2822 39.0552 16.9693 39.0429 16.9202ZM62.8221 16.0736H55.8282V9.07975H50.7976V16.0736H43.8037V21.1043H50.7976V28.0982H55.8282V21.1043H62.8221V16.0736Z" fill="#EC2D26"/>
</svg>
