<svg width="120" height="120" viewBox="0 0 120 120" fill="none" xmlns="http://www.w3.org/2000/svg">
<g id="Logo">
<path id="Vector" d="M46.8914 90C42.2854 81.6782 44.742 76.9038 48.2732 72.4094C52.1423 67.4883 53.1556 62.6206 53.1556 62.6206C53.1556 62.6206 56.2109 66.0614 54.9827 71.4359C60.3563 66.2347 61.385 57.9395 60.5713 54.7655C72.7312 62.1538 77.936 78.144 70.9348 90C108.198 71.6893 80.2083 44.2832 75.3259 41.1892C76.9534 44.2698 77.2604 49.4977 73.9748 52.0449C68.4169 33.7475 54.6756 30 54.6756 30C56.3031 39.4421 48.7799 49.7644 41.5331 57.4728C41.2721 53.7119 41.0111 51.1114 38.7234 47.5106C38.2168 54.3521 32.1982 59.9267 30.5708 66.7682C28.3752 76.0502 32.2443 82.8384 46.8914 90Z" fill="#F2F1E6"/>
<circle id="Ellipse 7" cx="60" cy="60" r="56" stroke="#F2F1E6" stroke-width="8"/>
</g>
</svg>
