<svg width="30" height="40" viewBox="0 0 30 40" fill="none" xmlns="http://www.w3.org/2000/svg">
<path id="Twitter" d="M29.9472 35.0006C29.9472 36.3732 29.4549 37.5508 28.4703 38.5297C27.4857 39.5104 26.3057 40 24.9273 40H15.0031C10.8684 40 7.33501 38.5392 4.40088 35.6141C1.46596 32.6894 0 29.169 0 25.0475V5.00425C0 3.5918 0.48876 2.40548 1.46596 1.443C2.44316 0.481921 3.63688 0 5.0458 0C6.41377 0 7.58917 0.490921 8.56505 1.47164C9.54389 2.45132 10.034 3.62676 10.034 5.00076V12.2582H24.1633C25.4461 12.2582 26.5451 12.7129 27.462 13.6229C28.3777 14.5313 28.8346 15.6215 28.8346 16.8947C28.8346 18.1655 28.3777 19.2577 27.4653 20.1668C26.5525 21.0747 25.4557 21.5301 24.1783 21.5301H10.034V25.0428C10.034 26.4203 10.5148 27.5903 11.4814 28.5555C12.4468 29.518 13.619 29.9999 14.9981 29.9999H24.9254C26.3029 29.9999 27.4857 30.4914 28.4703 31.4716C29.4549 32.4523 29.9472 33.6286 29.9472 35.0006" fill="#1DA1F2"/>
</svg>
